<svg xmlns="http://www.w3.org/2000/svg" width="21.363" height="25.005" viewBox="0 0 21.363 25.005"><defs><style>.a{fill:#d9d8d6;fill-rule:evenodd;}</style></defs><g transform="translate(0)"><path class="a" d="M282.106,328.445a7.876,7.876,0,0,1,2.843.521l1.271-1.958a.227.227,0,1,1,.38.247l-1.227,1.89a5.525,5.525,0,0,1,3.454,4.775H275.386a5.524,5.524,0,0,1,3.454-4.775l-1.228-1.89a.227.227,0,0,1,.381-.247l1.271,1.958a7.88,7.88,0,0,1,2.842-.521Zm-1.225,18.6V350.4a1.514,1.514,0,0,1-1.509,1.509h0a1.514,1.514,0,0,1-1.509-1.509v-3.355H276.6a1.226,1.226,0,0,1-1.222-1.222v-11h13.464v11a1.226,1.226,0,0,1-1.222,1.222H286.35V350.4a1.514,1.514,0,0,1-1.509,1.509h0a1.514,1.514,0,0,1-1.509-1.509v-3.355Zm-7.947-12.167h0a1.514,1.514,0,0,1,1.509,1.509v6.037a1.514,1.514,0,0,1-1.509,1.509h0a1.514,1.514,0,0,1-1.509-1.509v-6.037a1.514,1.514,0,0,1,1.509-1.509Zm18.345,0h0a1.514,1.514,0,0,1,1.509,1.509v6.037a1.514,1.514,0,0,1-1.509,1.509h0a1.514,1.514,0,0,1-1.51-1.509v-6.037a1.514,1.514,0,0,1,1.51-1.509ZM279.2,330.489a.773.773,0,1,1-.773.773.773.773,0,0,1,.773-.773Zm5.811,0a.773.773,0,1,1-.773.773.773.773,0,0,1,.773-.773Z" transform="translate(-271.425 -326.905)"/></g></svg>