<?xml version="1.0" encoding="utf-8"?>
<!-- Generator: Adobe Illustrator 25.3.0, SVG Export Plug-In . SVG Version: 6.00 Build 0)  -->
<svg version="1.1" id="Layer_1" xmlns="http://www.w3.org/2000/svg" xmlns:xlink="http://www.w3.org/1999/xlink" x="0px" y="0px"
	 viewBox="0 0 932.1 199.4" style="enable-background:new 0 0 932.1 199.4;" xml:space="preserve">
<style type="text/css">
	.st0{fill:#FFFFFF;}
</style>
<g id="Wordmark" transform="translate(4 70.142)">
	<path id="Fill_21" class="st0" d="M195.1,128.5c-0.7,0-1.5,0-2.3-0.1v-4.9c0.7,0.1,1.4,0.1,2.1,0.1c2.6,0.2,5.2-0.7,7.1-2.7
		c1.7-2.3,2.5-5.2,2.3-8.2V56.5h4.9v56.4c0.3,4.2-1,8.3-3.6,11.6C202.9,127.3,199,128.8,195.1,128.5z M206.8,44.2
		c-2.2,0-3.9-1.8-4-4c0.1-2.2,1.9-4,4.1-3.9c2.1,0.1,3.8,1.8,3.8,3.9C210.7,42.4,208.9,44.2,206.8,44.2z"/>
	<path id="Fill_23" class="st0" d="M268.8,56.5V107h-4.9v-9.6c-3.2,6.9-10.2,11.1-17.7,10.7c-11.7,0-19.2-8-19.2-20.2V56.5h5v31.5
		c0,9.3,5.2,15.4,14.5,15.4c9.7,0,17.3-6.5,17.3-20.1V56.5H268.8"/>
	<path id="Fill_24" class="st0" d="M317.3,93.8c0,8.3-7.1,14.4-17.7,14.4c-9.9,0-16.4-4.7-18.8-11.2l4.2-2.5
		c1.8,5.5,7.1,8.9,14.5,8.9c6.9,0,12.7-3.1,12.7-9.5c0-13.8-29.9-5.9-29.9-24.1c0-8,6.7-14.4,16.8-14.4c7.1-0.4,13.7,3.6,16.8,10.1
		l-4.1,2.4c-2.2-5-7.3-8.1-12.6-7.7c-6.4,0-11.8,3.4-11.8,9.5C287.4,83.3,317.3,75.3,317.3,93.8"/>
	<path id="Fill_25" class="st0" d="M337.8,61.4v32.9c0,8.9,4.6,9.1,14.7,8.2v4.6c-12.9,2-19.7-1.2-19.7-12.8V61.4h-10.9v-4.9h10.9
		V43.8l5-1.5v14.2h14.7v4.9L337.8,61.4"/>
	<path id="Fill_26" class="st0" d="M396.9,108.2c-4.5,0.1-8.9-1.2-12.7-3.5c-3.6-2.3-6.6-5.5-8.5-9.3V107h-4.9V36.2h4.9v32
		c2-3.8,4.9-7.1,8.5-9.3c3.8-2.3,8.2-3.6,12.7-3.5c6.8,0,13.3,2.7,18.1,7.6c4.9,5,7.6,11.8,7.5,18.8c0.1,7-2.6,13.8-7.5,18.8
		C410.2,105.5,403.7,108.2,396.9,108.2z M396.6,60.2c-11.5-0.1-20.8,9.4-20.9,21.1c0,0.2,0,0.3,0,0.5c-0.2,11.7,9,21.4,20.5,21.5
		c0.2,0,0.3,0,0.5,0c11.5,0.1,20.8-9.4,20.9-21.1c0-0.2,0-0.3,0-0.5c0.2-11.7-9-21.4-20.5-21.5C396.9,60.2,396.7,60.2,396.6,60.2z"
		/>
	<path id="Fill_27" class="st0" d="M457,108.2c-14.2,0.2-25.8-11.4-26-25.8c0-0.2,0-0.4,0-0.6c-0.1-14.5,11.3-26.3,25.4-26.4
		c0.2,0,0.4,0,0.6,0c14.1-0.2,25.7,11.4,25.9,25.8c0,0.2,0,0.4,0,0.6c0.2,14.4-11.2,26.3-25.3,26.4
		C457.4,108.2,457.2,108.2,457,108.2z M457,60.2c-11.5-0.1-20.9,9.4-20.9,21.1c0,0.1,0,0.3,0,0.4c-0.2,11.8,9.1,21.5,20.6,21.6
		c11.5,0.2,21-9.3,21.2-21c0-0.2,0-0.4,0-0.6c0.2-11.7-8.9-21.3-20.4-21.5C457.3,60.2,457.1,60.2,457,60.2L457,60.2z"/>
	<path id="Fill_28" class="st0" d="M516.9,108.2c-6.8,0-13.3-2.7-18-7.6c-4.9-5-7.6-11.8-7.5-18.8c-0.1-7,2.7-13.8,7.5-18.8
		c4.8-4.9,11.3-7.6,18-7.6c4.4-0.1,8.8,1.1,12.6,3.4c3.6,2.2,6.6,5.4,8.6,9.1V56.5h5V107h-5V95.6c-2,3.8-5,6.9-8.6,9.1
		C525.7,107,521.3,108.2,516.9,108.2z M517.3,60.2c-11.5-0.1-20.9,9.4-20.9,21.1c0,0.2,0,0.3,0,0.5c-0.2,11.8,9.1,21.5,20.6,21.6
		c11.5,0.2,21-9.3,21.2-21c0-0.2,0-0.4,0-0.6c0.2-11.7-8.9-21.3-20.4-21.5C517.6,60.2,517.5,60.2,517.3,60.2z"/>
	<path id="Fill_29" class="st0" d="M583.7,55.8v4.9c-8.5,0-16.5,5.4-16.5,18.3V107h-4.9V56.5h4.9v9.9
		C569.9,59.6,576.6,55.3,583.7,55.8"/>
	<path id="Fill_30" class="st0" d="M613,108.2c-6.8,0-13.3-2.7-18.1-7.6c-4.9-5-7.5-11.8-7.5-18.8c-0.1-7,2.6-13.8,7.5-18.8
		c4.8-4.9,11.3-7.6,18.1-7.6c4.5-0.1,8.9,1.2,12.7,3.5c3.6,2.3,6.6,5.5,8.6,9.3v-32h4.9V107h-4.9V95.3c-2,3.8-4.9,7.1-8.6,9.3
		C621.9,107,617.5,108.2,613,108.2z M613.3,60.2c-11.5-0.1-20.8,9.4-20.9,21.1c0,0.2,0,0.3,0,0.5c-0.2,11.7,9,21.4,20.5,21.5
		c0.1,0,0.3,0,0.4,0c11.5,0.1,20.8-9.4,20.9-21.1c0-0.2,0-0.3,0-0.5c0.2-11.7-9-21.4-20.5-21.5C613.6,60.2,613.5,60.2,613.3,60.2
		L613.3,60.2z"/>
	<path id="Fill_31" class="st0" d="M681.7,55.8v4.9c-8.5,0-16.5,5.4-16.5,18.3V107h-4.9V56.5h4.9v9.9
		C667.9,59.6,674.6,55.3,681.7,55.8"/>
	<path id="Fill_32" class="st0" d="M711.3,108.2c-14.2,0.2-25.8-11.4-26-25.8c0-0.2,0-0.4,0-0.6c-0.1-14.5,11.3-26.3,25.4-26.4
		c0.2,0,0.4,0,0.5,0c14.1-0.2,25.7,11.4,25.9,25.8c0,0.2,0,0.4,0,0.6c0.2,14.4-11.2,26.3-25.3,26.4
		C711.7,108.2,711.5,108.2,711.3,108.2z M711.3,60.2c-11.5-0.1-20.8,9.4-20.9,21.1c0,0.1,0,0.3,0,0.4c-0.2,11.8,9.1,21.5,20.6,21.6
		c11.5,0.2,21-9.3,21.2-21c0-0.2,0-0.4,0-0.6c0.2-11.7-8.9-21.3-20.4-21.5C711.6,60.2,711.5,60.2,711.3,60.2L711.3,60.2z"/>
	<path id="Fill_33" class="st0" d="M771.7,108.2c-14.2,0.2-25.8-11.4-26-25.8c0-0.2,0-0.4,0-0.6c-0.1-14.5,11.3-26.3,25.4-26.4
		c0.2,0,0.4,0,0.6,0c14.1-0.2,25.7,11.4,25.9,25.8c0,0.2,0,0.4,0,0.6c0.2,14.4-11.2,26.3-25.3,26.4
		C772,108.2,771.8,108.2,771.7,108.2z M771.7,60.2c-11.5-0.1-20.9,9.4-20.9,21.1c0,0.1,0,0.3,0,0.4c0,11.8,9.3,21.3,20.9,21.3
		c11.5,0,20.9-9.5,20.9-21.3c0,0,0,0,0,0c0.2-11.7-8.9-21.3-20.4-21.5C771.9,60.2,771.8,60.2,771.7,60.2L771.7,60.2z"/>
	<path id="Fill_34" class="st0" d="M880,75V107h-4.9V75c0-9.6-5.4-14.8-13.1-14.8c-8.3,0-14.8,5.7-14.8,18.6V107h-4.9V75
		c0-9.6-5-14.8-12.6-14.8c-8.1,0-15.3,5.7-15.3,18.6V107h-4.9V56.5h4.9v8.7c3-6.2,9.2-10,15.9-9.8c6.8-0.3,13,3.8,15.4,10.3
		c3.1-6.4,9.5-10.4,16.5-10.3C872.5,55.4,880,62.3,880,75"/>
	<path id="Fill_35" class="st0" d="M927.2,93.8c0,8.3-7.1,14.4-17.7,14.4c-9.9,0-16.4-4.7-18.8-11.2l4.2-2.5
		c1.8,5.5,7.1,8.9,14.5,8.9c6.9,0,12.7-3.1,12.7-9.5c0-13.8-29.9-5.9-29.9-24.1c0-8,6.7-14.4,16.8-14.4c7.1-0.4,13.7,3.6,16.8,10.1
		l-4.1,2.4c-2.2-5-7.3-8.1-12.6-7.7c-6.4,0-11.8,3.4-11.8,9.5C897.3,83.3,927.2,75.3,927.2,93.8"/>
</g>
<g id="JB_Logo" transform="translate(22.27 -0.369)">
	<path id="Combined_Shape" class="st0" d="M-21.7,178.2V161h145.8V17.9H-4.8v78.3h-17V0.7H141v177.6H-21.7z"/>
	<path id="Path_2" class="st0" d="M19.8,138.5h-0.2c-22.9,0-41.4-19-41.4-42.4s18.6-42.3,41.5-42.3l0,0l0,0
		c22.9,0.1,41.5,19.1,41.5,42.5v0C61.2,119.6,42.6,138.5,19.8,138.5z M19.8,71.1c-13.5,0-24.5,11.2-24.5,25s10.9,25.1,24.5,25.1h0.1
		c13.5,0,24.5-11.2,24.5-24.9C44.3,82.4,33.3,71.1,19.8,71.1L19.8,71.1z"/>
</g>
</svg>
