<svg xmlns="http://www.w3.org/2000/svg" width="202" height="40.959" viewBox="0 0 202 40.959"><defs><style>.a{fill:#fff;}</style></defs><g transform="translate(0 0)"><g transform="translate(41.715 21.899)"><path class="a" d="M265.261,260.3q-.237,0-.488-.024v-1c.149.015.3.023.449.024a1.882,1.882,0,0,0,1.5-.549,2.468,2.468,0,0,0,.486-1.685V245.425h1.045v11.636a3.437,3.437,0,0,1-.765,2.389A2.874,2.874,0,0,1,265.261,260.3Zm2.469-17.406a.82.82,0,1,1,.838-.833A.839.839,0,0,1,267.73,242.895Z" transform="translate(-264.773 -241.247)"/><path class="a" d="M307.893,261.456V271.9h-1.048v-1.984a3.95,3.95,0,0,1-3.755,2.21,3.856,3.856,0,0,1-4.069-4.175v-6.5h1.07v6.5a2.887,2.887,0,0,0,3.082,3.175c2.055,0,3.671-1.334,3.671-4.158v-5.513h1.049" transform="translate(-291.744 -257.278)"/><path class="a" d="M360.55,268.258c0,1.713-1.51,2.966-3.754,2.966a3.943,3.943,0,0,1-3.985-2.318l.9-.522a2.994,2.994,0,0,0,3.082,1.837c1.468,0,2.7-.647,2.7-1.962,0-2.839-6.353-1.215-6.353-4.974,0-1.648,1.423-2.966,3.565-2.966a3.708,3.708,0,0,1,3.566,2.088l-.88.5a2.742,2.742,0,0,0-2.687-1.586c-1.363,0-2.516.706-2.516,1.961,0,2.8,6.355,1.149,6.355,4.971" transform="translate(-334.106 -256.371)"/><path class="a" d="M397.25,251.242v6.788c0,1.839.985,1.883,3.125,1.693v.942c-2.746.417-4.194-.251-4.194-2.633v-6.789h-2.307v-1.02h2.307v-2.614l1.069-.314v2.924h3.125v1.02H397.25" transform="translate(-366.443 -246.04)"/><path class="a" d="M468.226,256.073a5.137,5.137,0,0,1-2.695-.723,4.991,4.991,0,0,1-1.814-1.93v2.424h-1.049V241.221h1.049v6.6a4.991,4.991,0,0,1,1.814-1.93,5.136,5.136,0,0,1,2.695-.723,5.452,5.452,0,1,1,0,10.9Zm-.062-9.9a4.4,4.4,0,0,0-4.446,4.355c0,.031,0,.063,0,.094a4.4,4.4,0,0,0,4.349,4.448h.1a4.4,4.4,0,0,0,4.447-4.354c0-.032,0-.063,0-.095a4.4,4.4,0,0,0-4.351-4.448Z" transform="translate(-420.62 -241.221)"/><path class="a" d="M528.487,271.251a5.427,5.427,0,0,1-5.516-5.335c0-.04,0-.08,0-.12a5.425,5.425,0,0,1,5.4-5.452h.118a5.416,5.416,0,0,1,5.495,5.336c0,.039,0,.077,0,.116a5.414,5.414,0,0,1-5.373,5.455Zm0-9.9a4.4,4.4,0,0,0-4.447,4.355c0,.03,0,.061,0,.091a4.436,4.436,0,0,0,8.871.117c0-.039,0-.078,0-.117a4.389,4.389,0,0,0-4.33-4.448h-.094Z" transform="translate(-468.109 -256.395)"/><path class="a" d="M588.71,271.251a5.453,5.453,0,1,1,0-10.906,5.2,5.2,0,0,1,2.679.706,5.06,5.06,0,0,1,1.83,1.883v-2.36h1.069v10.442H593.22v-2.354a5.06,5.06,0,0,1-1.83,1.883A5.2,5.2,0,0,1,588.71,271.251Zm.085-9.9a4.4,4.4,0,0,0-4.448,4.355c0,.031,0,.063,0,.094a4.436,4.436,0,0,0,8.871.117c0-.039,0-.078,0-.117a4.389,4.389,0,0,0-4.33-4.448Z" transform="translate(-515.603 -256.396)"/><path class="a" d="M658.8,260.721v1c-1.8,0-3.5,1.107-3.5,3.781v5.806h-1.049V260.867h1.048v2.051a3.531,3.531,0,0,1,3.5-2.2" transform="translate(-571.491 -256.689)"/><path class="a" d="M684.842,256.073a5.453,5.453,0,1,1,0-10.906,5.137,5.137,0,0,1,2.695.723,5,5,0,0,1,1.818,1.93v-6.6H690.4v14.623h-1.051V253.42a5,5,0,0,1-1.818,1.93A5.139,5.139,0,0,1,684.842,256.073Zm.063-9.9a4.4,4.4,0,0,0-4.447,4.354q0,.047,0,.095a4.4,4.4,0,0,0,4.351,4.448h.1a4.4,4.4,0,0,0,4.446-4.353c0-.032,0-.064,0-.1A4.4,4.4,0,0,0,685,246.173h-.095Z" transform="translate(-591.308 -241.221)"/><path class="a" d="M756.8,260.721v1c-1.8,0-3.5,1.107-3.5,3.781v5.806h-1.049V260.867H753.3v2.051a3.53,3.53,0,0,1,3.5-2.2" transform="translate(-648.674 -256.689)"/><path class="a" d="M782.836,271.251a5.426,5.426,0,0,1-5.515-5.334q0-.06,0-.121a5.425,5.425,0,0,1,5.4-5.452h.117a5.417,5.417,0,0,1,5.495,5.336c0,.039,0,.077,0,.116a5.414,5.414,0,0,1-5.373,5.455Zm0-9.9a4.4,4.4,0,0,0-4.446,4.354q0,.046,0,.092a4.436,4.436,0,0,0,8.871.118q0-.059,0-.118a4.39,4.39,0,0,0-4.332-4.448h-.093Z" transform="translate(-668.415 -256.396)"/><path class="a" d="M843.144,271.251a5.427,5.427,0,0,1-5.516-5.335c0-.04,0-.08,0-.12a5.425,5.425,0,0,1,5.4-5.452h.117a5.416,5.416,0,0,1,5.495,5.336c0,.039,0,.077,0,.116a5.414,5.414,0,0,1-5.373,5.455Zm0-9.9a4.4,4.4,0,0,0-4.447,4.355c0,.03,0,.061,0,.091a4.436,4.436,0,0,0,8.872,0v0a4.39,4.39,0,0,0-4.332-4.448h-.093Z" transform="translate(-715.908 -256.395)"/><path class="a" d="M916.307,264.382V271h-1.048v-6.619c0-1.983-1.154-3.049-2.79-3.049-1.762,0-3.145,1.169-3.145,3.845V271h-1.05v-6.619c0-1.983-1.069-3.049-2.687-3.049-1.72,0-3.251,1.169-3.251,3.845V271h-1.045V260.559h1.048v1.8a3.663,3.663,0,0,1,3.378-2.026,3.32,3.32,0,0,1,3.271,2.13,3.821,3.821,0,0,1,3.5-2.13c2.223,0,3.816,1.441,3.816,4.052" transform="translate(-766.045 -256.381)"/><path class="a" d="M990.454,268.258c0,1.713-1.509,2.966-3.753,2.966a3.942,3.942,0,0,1-3.985-2.318l.9-.522a2.994,2.994,0,0,0,3.082,1.838c1.468,0,2.705-.647,2.705-1.962,0-2.839-6.354-1.214-6.354-4.974,0-1.648,1.422-2.966,3.565-2.966a3.709,3.709,0,0,1,3.566,2.088l-.881.5a2.741,2.741,0,0,0-2.687-1.586c-1.363,0-2.516.706-2.516,1.961,0,2.8,6.354,1.149,6.354,4.971" transform="translate(-830.169 -256.372)"/></g><path class="a" d="M68.465,171.826v-3.557H99.447V138.72H72.057v16.159H68.449V135.162h34.587v36.664Z" transform="translate(-68.449 -135.162)"/><path class="a" d="M77.278,205.745h-.032a8.749,8.749,0,1,1,.031-17.5h0a8.8,8.8,0,0,1,8.812,8.774v.006A8.782,8.782,0,0,1,77.278,205.745Zm0-13.92a5.171,5.171,0,1,0-.015,10.342h.018a5.171,5.171,0,1,0,0-10.342Z" transform="translate(-68.449 -177.286)"/></g></svg>