<svg xmlns="http://www.w3.org/2000/svg" width="20.226" height="25.005" viewBox="0 0 20.226 25.005"><defs><style>.a{fill:#d9d8d6;fill-rule:evenodd;}</style></defs><path class="a" d="M259.25,350.139a5.6,5.6,0,0,0,1.307-3.984,5.51,5.51,0,0,0-3.675,1.9,5.145,5.145,0,0,0-1.311,3.857A4.664,4.664,0,0,0,259.25,350.139Z" transform="translate(-245.508 -346.155)"/><path class="a" d="M221.085,416.977h0a.011.011,0,0,0,0-.007Z" transform="translate(-220.141 -398.298)"/><path class="a" d="M234.916,378.689h-.02v-.038a5.629,5.629,0,0,1-.423-3.045v-.037h0a5.135,5.135,0,0,1,1.686-3.157l.027-.02v0h0a7.528,7.528,0,0,1,.869-.719,5.652,5.652,0,0,0-4.608-2.451c-1.8-.151-3.667,1.139-4.674,1.109-.974.03-2.446-1.135-4-1.061l-.015,0c-.035,0-.315.015-.315.015a5.864,5.864,0,0,0-4.92,3.1v.006h-.006v-.006a9,9,0,0,0-.975,3.185v.052a15.385,15.385,0,0,0,.108,3.069.17.17,0,0,1,.007.04l0,0a15.34,15.34,0,0,0,.791,3.073v.007h0a19.044,19.044,0,0,0,1.621,3.173v.006h.006c1.055,1.515,2.3,3.217,3.935,3.144,1.582-.06,2.165-1.051,4.07-1.036,1.9-.015,2.432.988,4.1,1,1.7-.073,2.756-1.587,3.812-3.1a16.625,16.625,0,0,0,1.614-3.179h0c.032-.095.08-.239.114-.345A5.651,5.651,0,0,1,234.916,378.689Z" transform="translate(-217.504 -363.127)"/></svg>